<svg fill="none" height="24" width="25" xmlns="http://www.w3.org/2000/svg"><path d="m12.5 24c-1.58 0-3.067-.315-4.457-.945s-2.6-1.485-3.629-2.565c-1.028-1.08-1.843-2.35-2.443-3.81s-.9-3.02-.9-4.68.3-3.22.9-4.68 1.415-2.73 2.443-3.81a11.527 11.527 0 0 1 3.629-2.565c1.39-.63 2.876-.945 4.457-.945s3.067.315 4.457.945 2.6 1.485 3.629 2.565c1.028 1.08 1.843 2.35 2.443 3.81s.9 3.02.9 4.68-.3 3.22-.9 4.68-1.415 2.73-2.443 3.81a11.527 11.527 0 0 1 -3.629 2.565c-1.39.63-2.876.945-4.457.945zm-1.143-2.49v-1.2c-.666-.1-1.31-.29-1.928-.57a9.168 9.168 0 0 1 -1.729-1.02l-.8.87c.629.52 1.32.945 2.071 1.275.753.33 1.548.545 2.386.645zm2.286 0a8.376 8.376 0 0 0 2.386-.645 8.742 8.742 0 0 0 2.071-1.275l-.8-.87c-.533.4-1.11.74-1.729 1.02s-1.261.47-1.928.57zm-1.143-3.51c1.581 0 2.929-.585 4.043-1.755s1.671-2.585 1.671-4.245-.557-3.075-1.671-4.245-2.463-1.755-4.043-1.755-2.929.585-4.043 1.755-1.671 2.585-1.671 4.245.557 3.075 1.671 4.245 2.463 1.755 4.043 1.755zm7.229-.12c.495-.66.9-1.385 1.214-2.175s.519-1.625.614-2.505h-1.143a8.237 8.237 0 0 1 -.543 2.025 9.882 9.882 0 0 1 -.971 1.815zm-14.458 0 .829-.87a10.09 10.09 0 0 1 -.971-1.8 8.01 8.01 0 0 1 -.543-2.01h-1.143c.095.88.3 1.715.614 2.505s.72 1.515 1.214 2.175zm7.229-1.08-3.429-4.8 3.429-4.8 3.429 4.8zm-9.057-6h1.143c.095-.7.276-1.37.543-2.01.266-.64.59-1.24.971-1.8l-.829-.87c-.495.66-.9 1.385-1.214 2.175a9.512 9.512 0 0 0 -.614 2.505zm16.971 0h1.143a9.175 9.175 0 0 0 -.628-2.505 9.793 9.793 0 0 0 -1.229-2.175l-.8.84c.381.56.705 1.165.971 1.815.267.65.448 1.325.543 2.025zm-12.684-5.52c.533-.4 1.104-.74 1.714-1.02s1.248-.47 1.914-.57v-1.2c-.838.1-1.633.315-2.386.645a8.742 8.742 0 0 0 -2.072 1.275l.829.87zm9.571 0 .8-.84a9.136 9.136 0 0 0 -2.071-1.29 8.083 8.083 0 0 0 -2.386-.66v1.2c.666.1 1.31.29 1.928.57.62.28 1.196.62 1.729 1.02z" fill="#b5c3d3"/></svg>