<svg xmlns="http://www.w3.org/2000/svg" width="20" height="20" fill="none"><path stroke="#fff" stroke-linecap="round" stroke-linejoin="round" stroke-width="2" d="M18.333 8.333H1.667m7.5 3.334H5M1.667 6.833v6.334c0 .933 0 1.4.181 1.756.16.314.415.569.729.729.356.181.823.181 1.756.181h11.334c.933 0 1.4 0 1.756-.181.314-.16.569-.415.729-.729.181-.356.181-.823.181-1.756V6.833c0-.933 0-1.4-.181-1.756a1.667 1.667 0 0 0-.729-.729c-.356-.181-.823-.181-1.756-.181H4.333c-.933 0-1.4 0-1.756.181-.314.16-.569.415-.729.729-.181.356-.181.823-.181 1.756Z"/></svg>