<svg xmlns="http://www.w3.org/2000/svg" width="18" height="18" fill="none"><g fill="#121926" clip-path="url(#a)"><path fill-rule="evenodd" d="M9 2.25a6.75 6.75 0 1 0 0 13.5 6.75 6.75 0 0 0 0-13.5ZM.75 9a8.25 8.25 0 1 1 16.5 0A8.25 8.25 0 0 1 .75 9Z" clip-rule="evenodd"/><path fill-rule="evenodd" d="M9.194 6.018a1.5 1.5 0 0 0-1.669.98.75.75 0 1 1-1.415-.497 3 3 0 0 1 5.83 1c0 .802-.422 1.416-.859 1.834-.436.418-.954.708-1.32.883a.16.16 0 0 0-.061.052.068.068 0 0 0-.01.017v.213a.75.75 0 0 1-1.5 0v-.21c0-.652.411-1.18.924-1.425.297-.142.656-.35.93-.613s.396-.511.396-.752v-.001a1.5 1.5 0 0 0-1.246-1.48Z" clip-rule="evenodd"/><path d="M9.75 12.75a.75.75 0 1 1-1.5 0 .75.75 0 0 1 1.5 0Z"/></g><defs><clipPath id="a"><path fill="#fff" d="M0 0h18v18H0z"/></clipPath></defs></svg>