<svg xmlns="http://www.w3.org/2000/svg" width="25" height="24" fill="none"><path fill="#B5C3D3" d="M8 18c.417 0 .77-.146 1.063-.438.291-.291.437-.645.437-1.062 0-.417-.146-.77-.438-1.063A1.446 1.446 0 0 0 8 15c-.417 0-.77.146-1.063.438A1.447 1.447 0 0 0 6.5 16.5c0 .417.146.77.438 1.063.291.291.645.437 1.062.437Zm0-9c.417 0 .77-.146 1.063-.438.291-.291.437-.645.437-1.062 0-.417-.146-.77-.438-1.063A1.447 1.447 0 0 0 8 6c-.417 0-.77.146-1.063.438A1.447 1.447 0 0 0 6.5 7.5c0 .417.146.77.438 1.063C7.229 8.854 7.582 9 8 9Zm4.5 4.5c.417 0 .77-.146 1.063-.438.291-.291.437-.645.437-1.062 0-.417-.146-.77-.438-1.063A1.446 1.446 0 0 0 12.5 10.5c-.417 0-.77.146-1.063.438A1.446 1.446 0 0 0 11 12c0 .417.146.77.438 1.063.291.291.645.437 1.062.437ZM17 18c.417 0 .77-.146 1.063-.438.291-.291.437-.645.437-1.062 0-.417-.146-.77-.438-1.063A1.446 1.446 0 0 0 17 15c-.417 0-.77.146-1.063.438A1.446 1.446 0 0 0 15.5 16.5c0 .417.146.77.438 1.063.291.291.645.437 1.062.437Zm0-9c.417 0 .77-.146 1.063-.438.291-.291.437-.645.437-1.062 0-.417-.146-.77-.438-1.063A1.447 1.447 0 0 0 17 6c-.417 0-.77.146-1.063.438A1.446 1.446 0 0 0 15.5 7.5c0 .417.146.77.438 1.063.291.291.645.437 1.062.437ZM5.5 21c-.55 0-1.02-.196-1.412-.587A1.926 1.926 0 0 1 3.5 19V5c0-.55.196-1.02.588-1.413A1.926 1.926 0 0 1 5.5 3h14c.55 0 1.02.196 1.413.587.391.392.587.863.587 1.413v14c0 .55-.196 1.02-.587 1.413A1.926 1.926 0 0 1 19.5 21h-14Zm0-2h14V5h-14v14Z"/></svg>