<svg xmlns="http://www.w3.org/2000/svg" width="97" height="31" fill="none"><rect width="30.403" height="30.403" fill="url(#a)" rx="5.791"/><rect width="30.403" height="30.403" fill="url(#b)" rx="5.791"/><g fill="#fff" clip-path="url(#c)"><path d="m21.535 20.88-7.276-2.646a4.132 4.132 0 0 1-2.701-3.371l-.856-6.964c-.083-.673.585-1.195 1.23-.96L19.526 9.7c1.345.49 2.3 1.68 2.473 3.086l.867 7.052c.09.73-.634 1.295-1.332 1.04Z" opacity=".9"/><path d="m18.368 23.125-7.276-2.646a4.132 4.132 0 0 1-2.7-3.37l-.857-6.965c-.082-.673.585-1.195 1.23-.96l7.596 2.762c1.345.49 2.3 1.68 2.473 3.086l.867 7.052c.09.73-.634 1.295-1.333 1.04Z" opacity=".6"/><path d="M11.72 6.887s-3.557-.437-4.18 3.14l.886 7.245s.124 1.345 1.384 2.452c0 0-.035-2.645 3.05-2.348 0 0-1.11-.894-1.3-2.514-.222-1.88-.736-6.001-.845-6.88-.024-.191-.03-.369.049-.546a.927.927 0 0 1 .956-.549Z" opacity=".6"/></g><path fill="#202939" fill-rule="evenodd" d="M51.18 5.038V25.16h3.735V5.038H51.18Zm-2.738 3.864h-8.107v4.752h7.876v3.779h-7.876v7.728h-3.996V5.124h12.103v3.778Zm23.182 1.947H67.89v7.729c0 1.183-.29 2.07-.868 2.662-.58.591-1.352.887-2.317.887-.869 0-1.563-.248-2.085-.744-.52-.515-.782-1.25-.782-2.204v-8.33h-3.735v8.788c0 1.85.512 3.301 1.535 4.35 1.042 1.05 2.355 1.575 3.938 1.575 1.969 0 3.407-.668 4.314-2.004v1.603h3.735V10.85ZM76.9 9.13c-.618 0-1.159-.22-1.622-.658-.444-.458-.666-.992-.666-1.603 0-.61.222-1.145.666-1.603.463-.458 1.004-.687 1.621-.687.638 0 1.178.229 1.622.687.463.458.695.992.695 1.603 0 .61-.232 1.145-.695 1.603a2.22 2.22 0 0 1-1.621.658Zm-1.854 16.03V10.85h3.736V25.16h-3.736ZM96.91 5.124h-3.736v7.414c-1.1-1.393-2.663-2.09-4.69-2.09-1.95 0-3.62.735-5.01 2.204-1.37 1.45-2.055 3.235-2.055 5.353s.685 3.912 2.055 5.382c1.39 1.45 3.06 2.175 5.01 2.175 2.026 0 3.59-.697 4.69-2.09v1.69h3.736V5.123ZM89.178 22.04c-1.159 0-2.124-.372-2.896-1.116-.753-.764-1.13-1.737-1.13-2.92 0-1.183.377-2.147 1.13-2.891.772-.764 1.737-1.145 2.896-1.145 1.158 0 2.113.382 2.866 1.145.753.744 1.13 1.708 1.13 2.891s-.377 2.156-1.13 2.92c-.753.744-1.708 1.116-2.866 1.116Z" clip-rule="evenodd"/><defs><linearGradient id="a" x1="0" x2="36.515" y1="0" y2="12.393" gradientUnits="userSpaceOnUse"><stop stop-color="#3F68F5"/><stop offset="1" stop-color="#8CA4F9"/></linearGradient><linearGradient id="b" x1="2.172" x2="34.553" y1="0" y2="14.432" gradientUnits="userSpaceOnUse"><stop stop-color="#A74FEC"/><stop offset=".547" stop-color="#5F6CFA"/><stop offset="1" stop-color="#8CA4F9"/></linearGradient><clipPath id="c"><path fill="#fff" d="M7.528 6.87h15.346v16.316H7.528z"/></clipPath></defs></svg>