<svg xmlns="http://www.w3.org/2000/svg" width="71" height="23" fill="none"><rect width="22.254" height="22.254" fill="url(#a)" rx="4.239"/><rect width="22.254" height="22.254" fill="url(#b)" rx="4.239"/><g fill="#fff" clip-path="url(#c)"><path d="m15.762 15.283-5.325-1.937A3.024 3.024 0 0 1 8.46 10.88l-.627-5.097a.67.67 0 0 1 .9-.703l5.56 2.022a2.77 2.77 0 0 1 1.81 2.259l.635 5.161c.065.534-.464.948-.976.762Z" opacity=".9"/><path d="M13.445 16.926 8.119 14.99a3.024 3.024 0 0 1-1.977-2.467l-.626-5.098a.67.67 0 0 1 .9-.703l5.56 2.022a2.77 2.77 0 0 1 1.81 2.259l.634 5.162c.066.534-.464.947-.975.761Z" opacity=".6"/><path d="M8.578 5.04s-2.603-.319-3.06 2.3l.65 5.302s.09.985 1.013 1.795c0 0-.026-1.936 2.232-1.718 0 0-.812-.655-.952-1.84-.162-1.377-.538-4.393-.618-5.036a.727.727 0 0 1 .036-.4.678.678 0 0 1 .7-.402Z" opacity=".6"/></g><path fill="#202939" fill-rule="evenodd" d="M37.462 3.688v14.73h2.734V3.687h-2.734Zm-2.004 2.828h-5.935v3.478h5.765v2.766h-5.765v5.657H26.6V3.75h8.859v2.766Zm16.968 1.425h-2.734v5.657c0 .866-.212 1.516-.636 1.949-.424.433-.989.65-1.695.65-.636 0-1.145-.182-1.526-.546-.382-.377-.572-.915-.572-1.613V7.941h-2.734v6.432c0 1.355.374 2.417 1.123 3.185.763.768 1.724 1.152 2.882 1.152 1.441 0 2.494-.489 3.158-1.466v1.173h2.734V7.941Zm3.86-1.257c-.452 0-.847-.16-1.186-.482a1.633 1.633 0 0 1-.488-1.174c0-.446.163-.838.488-1.173.339-.335.734-.503 1.186-.503.467 0 .862.168 1.187.503.34.335.51.727.51 1.173 0 .447-.17.839-.51 1.174-.325.321-.72.482-1.187.482ZM54.93 18.417V7.941h2.734v10.476H54.93ZM70.933 3.75H68.2v5.427c-.805-1.02-1.95-1.53-3.433-1.53-1.427 0-2.65.538-3.667 1.614-1.003 1.062-1.505 2.368-1.505 3.918 0 1.55.502 2.864 1.505 3.939 1.017 1.062 2.24 1.592 3.667 1.592 1.483 0 2.628-.51 3.433-1.53v1.237h2.734V3.75Zm-5.659 12.383c-.847 0-1.554-.272-2.12-.817-.55-.559-.826-1.271-.826-2.137 0-.866.276-1.572.827-2.116.565-.559 1.272-.838 2.12-.838.847 0 1.546.279 2.097.838.552.544.827 1.25.827 2.116 0 .866-.275 1.578-.826 2.137-.552.545-1.25.817-2.099.817Z" clip-rule="evenodd"/><defs><linearGradient id="a" x1="0" x2="26.728" y1="0" y2="9.071" gradientUnits="userSpaceOnUse"><stop stop-color="#3F68F5"/><stop offset="1" stop-color="#8CA4F9"/></linearGradient><linearGradient id="b" x1="1.59" x2="25.291" y1="0" y2="10.563" gradientUnits="userSpaceOnUse"><stop stop-color="#A74FEC"/><stop offset=".547" stop-color="#5F6CFA"/><stop offset="1" stop-color="#8CA4F9"/></linearGradient><clipPath id="c"><path fill="#fff" d="M5.51 5.029h11.233v11.943H5.51z"/></clipPath></defs></svg>