<svg xmlns="http://www.w3.org/2000/svg" width="52" height="49" fill="none"><rect width="25.88" height="25.88" x="12.84" fill="url(#a)" rx="4.93"/><rect width="25.88" height="25.88" x="12.84" fill="url(#b)" rx="4.93"/><g fill="#fff" clip-path="url(#c)"><path d="M31.17 17.979 24.978 15.7a3.55 3.55 0 0 1-2.299-2.902l-.729-5.996a.782.782 0 0 1 1.047-.827l6.466 2.378a3.25 3.25 0 0 1 2.105 2.658l.738 6.071a.847.847 0 0 1-1.134.896Z" opacity=".9"/><path d="m28.475 19.912-6.193-2.278a3.55 3.55 0 0 1-2.3-2.903l-.728-5.996a.782.782 0 0 1 1.047-.827l6.465 2.378a3.25 3.25 0 0 1 2.106 2.658l.738 6.071a.847.847 0 0 1-1.135.897Z" opacity=".6"/><path d="M22.816 5.93s-3.028-.376-3.558 2.704l.755 6.238s.104 1.159 1.177 2.111c0 0-.03-2.277 2.597-2.021 0 0-.945-.77-1.107-2.165-.189-1.619-.626-5.167-.72-5.924-.02-.165-.024-.318.042-.47.1-.23.367-.515.814-.473Z" opacity=".6"/></g><path fill="#202939" fill-rule="evenodd" d="M12.633 31.328v17.327h3.18V31.327h-3.18Zm-2.33 3.327H3.4v4.091h6.705V42H3.4v6.655H0V31.4h10.303v3.254Zm19.733 1.676h-3.179v6.655c0 1.019-.247 1.783-.74 2.292-.492.51-1.15.764-1.971.764-.74 0-1.331-.213-1.775-.64-.444-.444-.665-1.077-.665-1.898V36.33h-3.18v7.567c0 1.594.435 2.843 1.306 3.746.888.904 2.005 1.356 3.352 1.356 1.676 0 2.9-.575 3.673-1.725v1.38h3.18V36.33Zm4.49-1.479a1.932 1.932 0 0 1-1.947-1.947c0-.526.189-.986.567-1.38.394-.395.854-.592 1.38-.592a1.84 1.84 0 0 1 1.38.592c.395.394.592.854.592 1.38 0 .526-.197.986-.592 1.38a1.878 1.878 0 0 1-1.38.567ZM32.95 48.655V36.33h3.18v12.324h-3.18ZM51.559 31.4H48.38v6.384c-.937-1.2-2.268-1.8-3.993-1.8-1.66 0-3.081.634-4.264 1.899-1.167 1.249-1.75 2.785-1.75 4.609 0 1.824.583 3.368 1.75 4.634C41.306 48.376 42.727 49 44.387 49c1.725 0 3.056-.6 3.993-1.8v1.455h3.18V31.4Zm-6.58 14.567c-.986 0-1.808-.32-2.465-.961-.641-.657-.962-1.495-.962-2.514 0-1.019.32-1.849.962-2.49.657-.657 1.479-.985 2.464-.985.986 0 1.8.328 2.44.986.642.64.962 1.47.962 2.489s-.32 1.857-.961 2.514c-.641.64-1.454.961-2.44.961Z" clip-rule="evenodd"/><defs><linearGradient id="a" x1="12.84" x2="43.923" y1="0" y2="10.549" gradientUnits="userSpaceOnUse"><stop stop-color="#3F68F5"/><stop offset="1" stop-color="#8CA4F9"/></linearGradient><linearGradient id="b" x1="14.688" x2="42.253" y1="0" y2="12.285" gradientUnits="userSpaceOnUse"><stop stop-color="#A74FEC"/><stop offset=".547" stop-color="#5F6CFA"/><stop offset="1" stop-color="#8CA4F9"/></linearGradient><clipPath id="c"><path fill="#fff" d="M19.248 5.916h13.063v14.049H19.248z"/></clipPath></defs></svg>